<?xml version="1.0" encoding="utf-8"?>
<!-- Generator: Adobe Illustrator 22.0.1, SVG Export Plug-In . SVG Version: 6.00 Build 0)  -->
<svg version="1.1" id="Layer_1" xmlns="http://www.w3.org/2000/svg" xmlns:xlink="http://www.w3.org/1999/xlink" x="0px" y="0px"
	 viewBox="0 0 1024 400.4" style="enable-background:new 0 0 1024 400.4;" xml:space="preserve">
<style type="text/css">
	.st0{fill:#702C8C;}
	.st1{fill:url(#SVGID_1_);}
</style>
<g>
	<g>
		<path class="st0" d="M333,1.1h37v7.8h-28v19.9h22.8v7.8h-22.8V57h29.6v7.8H333V1.1z"/>
		<path class="st0" d="M389.3,50.7c0,0,6.8,6.9,16.2,6.9c6,0,11-3.3,11-9.4c0-13.8-30.8-10.8-30.8-30.4c0-9.9,8.6-17.8,20.6-17.8
			c11.8,0,18,6.4,18,6.4l-4.1,7.4c0,0-5.9-5.5-14-5.5c-6.8,0-11.5,4.2-11.5,9.3c0,13.2,30.8,9.6,30.8,30.3c0,9.8-7.6,17.9-20.2,17.9
			c-13.5,0-21.1-8.4-21.1-8.4L389.3,50.7z"/>
		<path class="st0" d="M442.9,1.1h23.3c11.6,0,20,7.8,20,19.9s-8.4,20.2-20,20.2h-14.3v23.5h-8.9V1.1z M464.7,33.5
			c7.7,0,12.4-4.8,12.4-12.4c0-7.7-4.7-12.2-12.3-12.2h-13v24.6H464.7z"/>
		<path class="st0" d="M531.4,46.4h-24l-6.3,18.3h-9.2l22.9-63.7h9.4l22.9,63.7h-9.3L531.4,46.4z M519.4,9.8c0,0-1.4,5.8-2.5,9
			L509.8,39h19.3l-7-20.2c-1.1-3.2-2.4-9-2.4-9H519.4z"/>
		<path class="st0" d="M588.9,0C604.2,0,612,8.4,612,8.4l-4.4,6.7c0,0-7.4-6.9-18.4-6.9c-14.2,0-23.5,10.8-23.5,24.3
			c0,13.6,9.5,25.2,23.6,25.2c12,0,19.7-8.3,19.7-8.3l4.8,6.4c0,0-8.3,9.5-23.4,10.1l-0.7,3.4c3.7,0.5,6.5,2.7,6.5,6.6
			c0,5.6-4.6,7.6-9.2,7.6c-2.9,0-5-0.6-5-0.6v-5.2c0,0,1.8,0.6,3.8,0.6c2.3,0,4.3-0.7,4.3-2.8c0-1.9-2-2.8-4.8-2.8
			c-0.8,0-1.6,0.1-1.6,0.1l1.8-7c-17.2-1.6-29-15.6-29-33.1C556.5,14.1,570.4,0,588.9,0z"/>
		<path class="st0" d="M658.4,0C676.8,0,691,14.2,691,32.5c0,18.8-14.2,33.4-32.6,33.4s-32.7-14.6-32.7-33.4
			C625.7,14.2,640,0,658.4,0z M658.4,57.6c13,0,23.4-10.8,23.4-25.2c0-13.9-10.5-24.3-23.4-24.3c-13,0-23.5,10.5-23.5,24.3
			C634.9,46.8,645.4,57.6,658.4,57.6z"/>
	</g>
	<linearGradient id="SVGID_1_" gradientUnits="userSpaceOnUse" x1="512" y1="400.4461" x2="512" y2="108.1034">
		<stop  offset="0" style="stop-color:#26A2EC"/>
		<stop  offset="1" style="stop-color:#426EB6"/>
	</linearGradient>
	<path class="st1" d="M446.3,118.6h-47.1v-7.2h101.9v7.2h-47.1v119h-7.8V118.6z M511.1,111.4h69.1v7.2h-61.3v51.8h50.3v7.2h-50.3
		v52.8h64.7v7.2h-72.5V111.4z M598.7,111.4h37c11.7,0,17.7,1.3,22.7,3.8c10.5,5.2,17.5,15.9,17.5,30.3c0,18-10.5,31.6-25.2,34.8v0.4
		c0,0,1.3,1.4,2.9,4.5l28.3,52.5h-9.2l-29.9-55.9h-36.3v55.9h-7.8V111.4z M640.7,174.5c16.6,0,27.1-11.9,27.1-29
		c0-11.2-5.6-20.2-14.8-24.3c-3.6-1.6-7.6-2.5-17.7-2.5h-28.9v55.9H640.7z M728.4,111.4h8.3L784,237.6h-8.3L759.2,194h-53.6
		l-16.2,43.6h-8.3L728.4,111.4z M756.5,186.8l-19.1-51.2c-2-5.4-4.7-15.2-4.7-15.2h-0.4c0,0-2.7,9.7-4.7,15.2l-19.3,51.2H756.5z
		 M795.5,111.4H837c22,0,38.4,13.9,38.4,36.8c0,22.9-16.4,37.2-38.4,37.2h-33.7v52.3h-7.8V111.4z M836.6,178.1
		c18.4,0,30.7-11,30.7-29.9c0-18.9-12.3-29.6-30.7-29.6h-33.4v59.5H836.6z M889.1,111.4h7.8v126.2h-7.8V111.4z M955.6,111.4h8.3
		l47.3,126.2h-8.3L986.5,194h-53.6l-16.2,43.6h-8.3L955.6,111.4z M983.8,186.8l-19.1-51.2c-2-5.4-4.7-15.2-4.7-15.2h-0.4
		c0,0-2.7,9.7-4.7,15.2l-19.3,51.2H983.8z M415.3,272h69.1v7.2h-61.3V331h50.3v7.2h-50.3v52.8h64.7v7.2h-72.5V272z M530.7,378.8
		c8.1,8.1,20.4,14.1,33.2,14.1c16.6,0,28.7-9.7,28.7-24.9c0-35.4-64.6-26.5-64.6-65.6c0-19.8,16.8-32.5,38.1-32.5
		c11.4,0,23.8,4,31.9,11.7l-4.3,6.7c-6.9-6.7-17.9-10.8-28-10.8c-15.5,0-29.6,9-29.6,24.3c0,33.5,64.6,24.3,64.6,65.3
		c0,18.9-13.9,33.4-37,33.4c-14.2,0-28.3-5.8-38.2-15.7L530.7,378.8z M648.7,272h8.3l47.3,126.2h-8.3l-16.4-43.6H626l-16.2,43.6
		h-8.3L648.7,272z M676.8,347.4l-19.1-51.2c-2-5.4-4.7-15.2-4.7-15.2h-0.4c0,0-2.7,9.7-4.7,15.2l-19.3,51.2H676.8z M712.2,272h7.8
		v82.6c0,23.8,15.5,38.4,39.3,38.4c23.8,0,39.5-14.6,39.5-38.8V272h7.8v83c0,27.8-19.3,45.4-47.1,45.4c-27.8,0-47.3-17.7-47.3-45.4
		V272z M767.2,243h10.1L763,263h-7.9L767.2,243z M831,272h39.7c37.5,0,62.9,23.1,62.9,63.1c0,40.2-25.4,63.1-62.9,63.1H831V272z
		 M869.4,391.1c33.5,0,56.1-19.7,56.1-55.9c0-36.1-22.5-55.9-56.1-55.9h-30.7v111.8H869.4z M951.5,272h69.1v7.2h-61.3V331h50.3v7.2
		h-50.3v52.8h64.7v7.2h-72.5V272z M177.3,283.4c-1.1-1.4-2.3-2.7-3.6-4.3c-3.6,3.1-8.6,5.3-15.2,5.3c-13.4,0-19.3-8.7-19.3-17.2
		c0-8,6.9-14.4,13.3-18.1c0,0-6.3-6.1-6.9-11.4c-1-8.1,5.5-16.1,16.6-16.1c8.5,0,15,5.5,15,14.2c0,6.1-3.3,11.4-10.9,15.6l-0.1,0.4
		c3.2,3.9,6.6,8.3,9.3,11.4c2-2.5,3.3-5.2,3.2-9h11.1c-0.7,8.1-2.7,11.7-7.7,17.3c3.1,3.9,6.3,7.8,9.8,11.9H177.3z M170.1,272.8
		c-3.4-3.8-8.8-11.3-13.3-16.9c-2.7,1.4-5.3,3.2-6.7,7.8c-1.4,4.4,0.9,10.3,6.7,11.9C163.5,277.5,167.6,275.2,170.1,272.8z
		 M156.8,236.4c0,3.1,1.3,5.8,3.8,8.7c4-3.1,6.1-5.4,6.1-8.9c0-2.9-1.6-6-4.8-6C158.6,230.2,156.8,233.2,156.8,236.4z M328.4,235.6
		l-41.4-18.1c0,0-29.3-9.2-31.8-24.1c0,0-4.8-18.9,19.3-23c34.9-6,71,23,71,23l28-55.4c0,0-27.3-29.9-86.6-29.9H0v60.4h95.3v224
		h73.1v-94.2h-11.5V381h-50.1V157H11.5v-37.3h222.6c-17.3,8.2-32,20.8-39.8,38h-37.5v52h11.5v-40.5h21.9c-18.9,68.1,47,93.9,47,93.9
		s37.2,17.7,49.8,23.2c45.5,19.6,19.3,46.7-9.5,44.2c-28.7-2.5-61.5-27.4-61.5-27.4l-34.9,49.9c0,0,29.3,31.6,77.6,38.1
		c42.8,5.8,90.8-5.2,109.1-40.6C408.8,271.4,328.4,235.6,328.4,235.6z"/>
	<rect y="32.5" class="st0" width="286" height="6.4"/>
	<rect x="738" y="32.5" class="st0" width="286" height="6.4"/>
</g>
</svg>
